<svg version="1.1" xmlns="http://www.w3.org/2000/svg" xmlns:xlink="http://www.w3.org/1999/xlink" x="0px" y="0px"
	width="45px" height="45px" viewBox="0 0 36.222 36.223" style = "fill: white;">
	 
	<path d="M16.541,8.733l-0.164-8.674L19.605,0l0.168,8.668L16.541,8.733z M11.534,10.312L5.28,4.299l-2.24,2.325l6.25,6.017
		L11.534,10.312z M33.182,6.043l-2.329-2.238l-6.017,6.246l2.336,2.242L33.182,6.043z M12.823,31.994l0.004,0.285
		c0.021,1.09,0.899,1.944,1.979,1.979c0.32,1.146,1.938,2.002,3.881,1.963c1.945-0.034,3.527-0.952,3.808-2.11
		c1.076-0.078,1.92-0.965,1.898-2.064l-0.008-0.275L12.823,31.994z M24.35,29.761l-11.565,0.231l0.02,1.117l11.568-0.221
		L24.35,29.761z M18.724,16.758c-0.204-0.049-0.411-0.072-0.617-0.072c-1.246,0-2.316,0.852-2.604,2.068
		c-0.163,0.695-0.045,1.414,0.332,2.021c0.377,0.606,0.968,1.03,1.664,1.194c1.446,0.341,2.887-0.577,3.219-1.993
		C21.055,18.537,20.16,17.092,18.724,16.758z M28.271,19.533c0.062,3.309-1.507,6.254-3.961,8.102l0.022,1.285l-11.566,0.215
		l-0.022-1.271c-2.525-1.752-4.207-4.641-4.273-7.944c-0.102-5.463,4.24-9.981,9.711-10.088
		C23.648,9.719,28.162,14.07,28.271,19.533z M24.15,19.752l-1.365-0.32c0.009-0.562-0.09-1.107-0.271-1.62l1.197-0.744l-1.055-1.699
		l-1.196,0.743c-0.379-0.391-0.825-0.721-1.332-0.963l0.319-1.364L18.5,13.328l-0.319,1.362c-0.023,0-0.049-0.004-0.073-0.004
		c-0.544,0-1.067,0.093-1.557,0.265l-0.731-1.183l-1.701,1.053l0.741,1.195c-0.392,0.382-0.717,0.828-0.957,1.336l-1.37-0.32
		l-0.455,1.947l1.362,0.318c-0.009,0.555,0.081,1.104,0.268,1.625l-1.191,0.738l1.056,1.699l1.191-0.74
		c0.385,0.398,0.836,0.723,1.336,0.959l-0.319,1.367l1.946,0.457l0.319-1.365c0.023,0,0.048,0.006,0.072,0.006
		c0.544,0,1.067-0.094,1.557-0.266l0.734,1.184l1.697-1.055l-0.74-1.193c0.392-0.383,0.718-0.828,0.957-1.336l1.371,0.32
		L24.15,19.752z"/>
</svg>
